PathFileType	4	(X/Y/Z)	Patient4_TMGait_0pt4_01_left_14.trc.trc
DataRate	CameraRate	NumFrames	NumMarkers	Units	OrigDataRate	OrigDataStartFrame	OrigNumFrames
78.651685393258	78.651685393258	4	33	mm	78.651685393258	89	       141
Frame#	Time	Sacral			L.Shoulder			Chest			R.Shoulder			Neck			R.ASIS			L.ASIS			R.Thigh.Superior			R.Thigh.Lateral			R.Thigh.Inferior			R.Patella			L.Thigh.Superior			L.Thigh.Lateral			L.Thigh.Inferior			L.Patella			L.Shank.Superior			L.Shank.Lateral			L.Shank.Inferior			R.Shank.Superior			R.Shank.Lateral			R.Shank.Inferior			R.Heel			R.Midfoot.Superior			R.Midfoot.Lateral			R.Toe			L.Heel			L.Midfoot.Lateral			L.Midfoot.Superior			L.Toe			L.Elbow			L.Wrist			R.Elbow			R.Wrist			
		X1	Y1	Z1	X2	Y2	Z2	X3	Y3	Z3	X4	Y4	Z4	X5	Y5	Z5	X6	Y6	Z6	X7	Y7	Z7	X8	Y8	Z8	X9	Y9	Z9	X10	Y10	Z10	X11	Y11	Z11	X12	Y12	Z12	X13	Y13	Z13	X14	Y14	Z14	X15	Y15	Z15	X16	Y16	Z16	X17	Y17	Z17	X18	Y18	Z18	X19	Y19	Z19	X20	Y20	Z20	X21	Y21	Z21	X22	Y22	Z22	X23	Y23	Z23	X24	Y24	Z24	X25	Y25	Z25	X26	Y26	Z26	X27	Y27	Z27	X28	Y28	Z28	X29	Y29	Z29	X30	Y30	Z30	X31	Y31	Z31	X32	Y32	Z32	X33	Y33	Z33	

89	18.498857142857	840.842529444384	1010.818212267131	502.782516641278	1016.397987523977	1430.428235121865	302.003081871601	1132.744432185097	1364.724183529667	453.919437729118	1067.989636603105	1443.667734276486	633.802264273593	1014.973504984455	1495.070113639888	468.940137799173	1077.370151290236	937.533478224478	596.192859102887	1039.613854242752	965.645685660147	325.646501945954	1125.778200275783	745.302850179874	564.629929037396	1057.299671666853	633.099382613047	633.827849236040	1132.632257742679	585.468553345607	548.088558697711	1140.365576182258	497.904286050003	556.144311352053	1074.911940206854	742.919407437525	345.803356741341	975.397520835520	632.314432737396	289.235541485707	1060.869779265772	545.122791799274	340.056374912705	1054.109474835004	464.884839611438	341.497025318721	996.643437381302	403.693751776857	340.736536339707	865.748099873795	334.544674439947	295.198909610050	874.679461041318	208.310632537837	359.058964566752	1113.964829319635	408.177095130628	568.048866390694	1049.443754351132	304.493108575648	636.802104368332	1089.441994582430	208.739922109489	573.846418461855	957.786727741001	43.285606531742	555.807001795823	1130.744299493618	98.085182184435	581.907725049589	1045.078976210787	37.542667348686	626.025616070482	1252.252328555783	45.220736757082	603.099537222658	700.755796733068	100.638422615866	400.179162757437	770.743578114092	68.315672253505	324.546482490890	867.595977824555	107.526690218166	346.757791354833	974.254261434822	35.809025510201	329.540670961566	1012.294578807820	1074.499951935783	193.248665720103	1166.189099647804	861.391926816414	176.225203673885	1020.744136598862	1109.328398227068	778.371165146791	1122.938230064904	869.082726898636	786.449404882849	
90	18.511571428571	840.734832005325	1011.323578264912	506.086258056324	1014.929681018230	1431.336951401453	304.663683645735	1132.496912075786	1365.206094279645	455.470707316839	1069.193758400388	1443.717668498042	636.047145161231	1014.858015603474	1495.529559181398	471.721805965626	1077.866775768780	938.234430685182	597.746324796217	1038.495476605442	966.063517767821	327.590280154322	1124.145374043285	744.468633121188	566.872340141523	1054.848319867406	633.206393863429	635.750903659324	1129.076592884246	584.992114170784	549.440252916075	1136.006331518161	497.515118627836	557.344775277860	1078.882438941732	745.415150025542	347.394903774672	983.179485046281	632.536748370069	289.936660715403	1071.572908027834	546.971379175471	340.072189927447	1065.722197653305	465.392663533594	340.643261538579	1006.186194208164	404.420027895015	340.272767786089	873.017293265398	339.648434606080	294.919953919450	878.157568379284	212.904789961261	357.988680831326	1109.623327405473	407.977342411204	569.162566910938	1045.120312445936	304.188754841194	637.596181258361	1084.801393180195	208.579921207284	574.287196908882	952.866233051012	43.218108741618	555.934540093324	1125.760107435718	97.929440566329	581.959379416081	1040.149281510106	37.471947802322	626.154888306473	1247.375362056317	44.986381363580	603.221578308744	700.578140121304	113.065256517316	399.034449775693	768.870841287102	76.437034534378	323.866139736034	867.528256975530	110.956168029497	345.638790872870	969.605785431763	34.860030055785	329.631355941144	1006.951909002323	1075.242407054564	196.517549902006	1152.493449255157	856.621855716747	176.695944986318	1029.854889794823	1108.676191063567	781.845004627499	1142.100007000625	873.025327622794	787.783640188612	
91	18.524285714286	840.505106697965	1011.700373406720	509.259368957082	1013.364588770952	1432.035460208976	307.159171231612	1132.156106434078	1365.515070120843	456.865501728607	1070.329701561223	1443.647490290841	638.119973350648	1014.698940018926	1495.836251233168	474.307773658203	1078.161932497071	938.789530624320	599.281817491929	1037.133827915120	966.185984025639	329.576104999803	1122.427253797632	743.657455085458	568.972908104173	1052.466231901723	633.268796352250	637.639396523559	1125.591919102032	584.515598096860	550.754526334675	1131.738776102623	497.111978966123	558.571612025026	1082.732619554796	748.052581011496	349.154164321927	991.095452777715	632.994130241456	290.597131764462	1082.227104769719	549.240906933065	340.283969056045	1077.372649524161	466.399855721723	340.104051296895	1015.975323449861	405.520959885019	339.941902951470	880.773085824856	345.083483201954	294.626128406011	882.129398647866	218.002382044782	357.025502347354	1105.362239688308	407.738335863404	570.272455318929	1040.853125164923	303.861807485246	638.386437969270	1080.201221875113	208.400170344272	574.720450096509	947.940454074138	43.171689115454	556.044649366790	1120.795399714067	97.758960626089	582.015045506944	1035.218542889847	37.401735014404	626.265647187161	1242.499836463793	44.695154714384	603.322137881809	701.170346633219	126.271774495661	397.893172501939	767.590107559493	85.434405764958	323.168198000013	867.914487898922	115.004921199126	344.611187505421	965.161257289682	33.838776081343	329.685195054497	1001.545740393112	1075.875169945449	199.450692499859	1138.450557569887	852.046376278184	177.185868580574	1039.051694908217	1108.139123951735	785.137731128263	1161.387702527949	877.669705905469	788.537622094290	
92	18.537000000000	840.153090506963	1011.949081935203	512.271951885346	1011.748693018414	1432.518374606903	309.462486741691	1131.731159869057	1365.649939923291	458.106977444691	1071.376557419524	1443.476986392874	640.004177989820	1014.504862983070	1496.003025724089	476.666338424685	1078.254848574543	939.195081735248	600.819995883767	1035.573369334824	966.046727622593	331.584698015317	1120.720628567334	742.919051722894	570.913168444724	1050.207088083609	633.286847359871	639.453257828297	1122.297701268701	584.047984418190	552.040193102855	1127.679435753806	496.695785930254	559.799167780835	1086.361428354057	750.817123344552	351.093556785150	998.994411983299	633.724494804857	291.242161745925	1092.623459301740	551.934422946864	340.731089394991	1088.879101121732	467.919443845877	339.887214624107	1025.834268969056	407.001239764370	339.763649636686	888.844941502793	350.759531445363	294.368727314978	886.522754729753	223.492192890204	356.213465648588	1101.266846032347	407.459677029746	571.349975680881	1036.698828819468	303.532812220228	639.160039699188	1075.664707602877	208.202751240236	575.139229270683	942.987188371815	43.153353043133	556.147062127356	1115.833696279744	97.589487695481	582.085109061866	1030.265424568294	37.341650533437	626.367630058803	1237.605279558297	44.362856447279	603.417029225839	702.545230475347	139.868191094219	396.828644649557	766.978788925364	95.074950602427	322.483704112740	868.779031935835	119.620501883371	343.697612454381	961.098926747359	32.827452069274	329.640607149245	996.049254762525	1076.383280516039	202.060414080490	1124.147357164162	847.719830473675	177.705464464501	1048.287203533533	1107.730514522502	788.190295705561	1180.687320034242	883.049562905343	788.687314201923	
